<svg height="64" viewBox="0 0 128 128" width="64" xmlns="http://www.w3.org/2000/svg" xmlns:xlink="http://www.w3.org/1999/xlink"><linearGradient id="a" gradientUnits="userSpaceOnUse" x1="0" x2="128" y1="128" y2="0"><stop offset="0" stop-color="#d2d2d2fe"/><stop offset="1" stop-color="#bbbbbbe3"/></linearGradient><path d="m64 6.59375c-3.60333 0-6.5 2.8966695-6.5 6.5v17.09375c0 3.60333 2.89667 6.5 6.5 6.5s6.5-2.89667 6.5-6.5v-17.09375c0-3.6033305-2.89667-6.5-6.5-6.5zm-36 14.90625c-1.662599 0-3.31978.63228-4.59375 1.90625-2.547939 2.547939-2.547939 6.639561 0 9.1875l12.09375 12.09375c2.547939 2.547939 6.639561 2.547939 9.1875 0s2.547939-6.639561 0-9.1875l-12.09375-12.09375c-1.27397-1.27397-2.931151-1.90625-4.59375-1.90625zm72 0c-1.662599 0-3.31978.63228-4.59375 1.90625l-12.09375 12.09375c-2.547939 2.547939-2.547939 6.639561 0 9.1875s6.639561 2.547939 9.1875 0l12.09375-12.09375c2.54794-2.547939 2.54794-6.639561 0-9.1875-1.27397-1.27397-2.93115-1.90625-4.59375-1.90625zm-36 19.78125c-12.239998 0-22.15625 9.916252-22.15625 22.15625s9.916252 22.15625 22.15625 22.15625 22.15625-9.916252 22.15625-22.15625-9.916252-22.15625-22.15625-22.15625zm-50.90625 16.21875c-3.6033305 0-6.5 2.89667-6.5 6.5s2.8966695 6.5 6.5 6.5h17.09375c3.60333 0 6.5-2.89667 6.5-6.5s-2.89667-6.5-6.5-6.5zm84.71875 0c-3.60333 0-6.53125 2.89667-6.53125 6.5s2.92792 6.5 6.53125 6.5h17.09375c3.60333 0 6.5-2.89667 6.5-6.5s-2.89667-6.5-6.5-6.5zm-57.71875 23.90625c-1.662599 0-3.31978.63228-4.59375 1.90625l-12.09375 12.09375c-2.547939 2.547939-2.547939 6.63956 0 9.1875s6.639561 2.54794 9.1875 0l12.09375-12.09375c2.547939-2.547939 2.547939-6.639561 0-9.1875-1.27397-1.27397-2.931151-1.90625-4.59375-1.90625zm47.8125 0c-1.662599 0-3.31978.63228-4.59375 1.90625-2.547939 2.547939-2.547939 6.639561 0 9.1875l12.09375 12.09375c2.547939 2.54794 6.63956 2.54794 9.1875 0s2.54794-6.639561 0-9.1875l-12.09375-12.09375c-1.27397-1.27397-2.931151-1.90625-4.59375-1.90625zm-23.90625 9.90625c-3.60333 0-6.5 2.89667-6.5 6.5v17.09375c0 3.60333 2.89667 6.5 6.5 6.5s6.5-2.89667 6.5-6.5v-17.09375c0-3.60333-2.89667-6.5-6.5-6.5z" fill="url(#a)"/></svg>
